HIERARCHY
ROOT root
{
	OFFSET	0	13.1	24.9
	CHANNELS 6  Xposition Yposition Zposition Xrotation Yrotation Zrotation
	JOINT spine_1
	{
		OFFSET	0	9.99999	0
		CHANNELS 3  Xrotation Yrotation Zrotation
		JOINT spine_2
		{
			OFFSET	0	112	-10
			CHANNELS 3  Xrotation Yrotation Zrotation
			JOINT spine_3
			{
				OFFSET	0	206.5	19.3
				CHANNELS 3  Xrotation Yrotation Zrotation
				JOINT spine_4
				{
					OFFSET	0	110.4	14.6
					CHANNELS 3  Xrotation Yrotation Zrotation
					JOINT neck_1
					{
						OFFSET	0	71.8	-50.3
						CHANNELS 3  Xrotation Yrotation Zrotation
						JOINT neck_2
						{
							OFFSET	0	86.2	-25.8
							CHANNELS 3  Xrotation Yrotation Zrotation
							JOINT head_ee
							{
								OFFSET	0	179.8	-8.7
								CHANNELS 3  Xrotation Yrotation Zrotation
								End Site
								{
									OFFSET	1	0	0
								}
							}
						}
					}
					JOINT left_clavicle
					{
						OFFSET	-43.2	22.4	-70.8
						CHANNELS 3  Xrotation Yrotation Zrotation
						JOINT left_shoulder
						{
							OFFSET	-93.9	-5.79999	48.7
							CHANNELS 3  Xrotation Yrotation Zrotation
							JOINT left_elbow
							{
								OFFSET	-291.4	-30.8	15.2
								CHANNELS 3  Xrotation Yrotation Zrotation
								JOINT left_lowarm_twist
								{
									OFFSET	-110.7	-3.89999	13.6
									CHANNELS 3  Xrotation Yrotation Zrotation
									JOINT left_hand
									{
										OFFSET	-110.7	-3.89999	13.6
										CHANNELS 3  Xrotation Yrotation Zrotation
										JOINT left_ee
										{
											OFFSET	-80.8	-5.10001	12.1
											CHANNELS 3  Xrotation Yrotation Zrotation
											End Site
											{
												OFFSET	1	0	0
											}
										}
									}
								}
							}
						}
					}
					JOINT right_clavicle
					{
						OFFSET	43.2	22.4	-70.8
						CHANNELS 3  Xrotation Yrotation Zrotation
						JOINT right_shoulder
						{
							OFFSET	93.9	-5.79999	48.7
							CHANNELS 3  Xrotation Yrotation Zrotation
							JOINT right_elbow
							{
								OFFSET	291.4	-30.8	15.2
								CHANNELS 3  Xrotation Yrotation Zrotation
								JOINT right_lowarm_twist
								{
									OFFSET	110.7	-3.89999	13.6
									CHANNELS 3  Xrotation Yrotation Zrotation
									JOINT right_hand
									{
										OFFSET	110.7	-3.89999	13.6
										CHANNELS 3  Xrotation Yrotation Zrotation
										JOINT right_ee
										{
											OFFSET	80.8	-5.10001	12.1
											CHANNELS 3  Xrotation Yrotation Zrotation
											End Site
											{
												OFFSET	1	0	0
											}
										}
									}
								}
							}
						}
					}
				}
			}
		}
	}
	JOINT left_hip
	{
		OFFSET	-82.8	-127.5	0.300001
		CHANNELS 3  Xrotation Yrotation Zrotation
		JOINT left_knee
		{
			OFFSET	-28.2	-396.7	2.2
			CHANNELS 3  Xrotation Yrotation Zrotation
			JOINT left_ankle
			{
				OFFSET	-11.7	-411.3	35.4
				CHANNELS 3  Xrotation Yrotation Zrotation
				JOINT left_toes
				{
					OFFSET	0	-60	-88.6
					CHANNELS 3  Xrotation Yrotation Zrotation
					JOINT left_foot_ee
					{
						OFFSET	-22.5	-16.5	-42.2
						CHANNELS 3  Xrotation Yrotation Zrotation
						End Site
						{
							OFFSET	1	0	0
						}
					}
				}
			}
		}
	}
	JOINT right_hip
	{
		OFFSET	82.8	-127.5	0.300001
		CHANNELS 3  Xrotation Yrotation Zrotation
		JOINT right_knee
		{
			OFFSET	28.2	-396.7	2.2
			CHANNELS 3  Xrotation Yrotation Zrotation
			JOINT right_ankle
			{
				OFFSET	11.7	-411.3	35.4
				CHANNELS 3  Xrotation Yrotation Zrotation
				JOINT right_toes
				{
					OFFSET	0	-60	-88.6
					CHANNELS 3  Xrotation Yrotation Zrotation
					JOINT right_foot_ee
					{
						OFFSET	22.5	-16.5	-42.2
						CHANNELS 3  Xrotation Yrotation Zrotation
						End Site
						{
							OFFSET	1	0	0
						}
					}
				}
			}
		}
	}
}
MOTION
Frames: 11
Frame Time: 0.02
998.905 691.086 -482.25 -170.647 -72.7167 -174.278 0.288625 0.589202 3.56459 0.29562 0.361333 3.59481 0.321507 -0.382387 3.59263 0.303549 0.18942 3.60793 -2.19858 4.29396 0.132097 -2.16975 7.66032 0.714082 -0.0 0.0 -0.0 -3.91352 23.6641 -2.6092 -15.6343 3.28051 75.1538 0.48498 -13.5092 0.057441 -15.4992 -0.796073 1.80886 0.647903 28.6484 14.827 -0.0 0.0 -0.0 11.349 26.1688 -21.8817 17.7247 22.2677 -65.487 2.4951 51.0169 -1.1907 39.708 0.334161 4.9613 1.52065 6.64842 -7.46264 0.0 0.0 0.0 33.0879 34.1085 -5.84389 0.729363 -0.0307201 -0.107708 -0.934329 11.9393 0.137283 -33.3438 0.0 0.0 -0.0 0.0 -0.0 -12.8402 16.1548 5.78526 -14.5325 -0.32069 -2.20117 37.8443 2.78541 4.71193 7.65489 -0.0 -0.0 0.0 0.0 0.0 
1021.43 683.93 -486.954 -171.045 -72.2375 -174.232 0.268369 0.737071 3.45476 0.27486 0.51588 3.4946 0.309631 -0.211006 3.52612 0.292452 0.348175 3.51524 -2.99578 3.18456 -0.04442 -2.98145 5.82124 0.415194 -0.0 0.0 -0.0 -3.44844 23.3101 -2.04516 -15.0558 2.6361 74.3878 0.503172 -13.9963 0.0617659 -15.0528 -0.766408 1.76002 0.748536 28.566 15.3687 -0.0 0.0 -0.0 10.7694 26.4622 -20.54 15.3075 22.8962 -64.1573 2.57206 51.8647 -1.25088 39.4784 0.322412 4.9344 1.76556 6.99187 -8.98658 0.0 0.0 0.0 33.0854 34.0559 -5.66988 -0.212546 0.00869371 0.0314587 -1.65345 12.3597 0.243445 -32.578 0.0 0.0 -0.0 0.0 -0.0 -14.6407 16.8026 4.45362 -14.9326 -0.321571 -2.26255 37.2305 3.37683 4.66291 8.40185 -0.0 -0.0 0.0 0.0 0.0 
1045.14 672.032 -484.735 -170.81 -73.4453 -173.209 0.273082 0.829215 3.34205 0.279085 0.614997 3.38797 0.318698 -0.0913988 3.44206 0.302454 0.453035 3.41337 -3.97759 1.06278 -1.06247 -3.97082 2.75622 -0.925596 -0.0 0.0 -0.0 -3.16177 23.1737 -1.67667 -14.6893 0.541716 72.0062 0.516259 -14.3455 0.0649697 -14.7995 -0.749739 1.7322 0.876783 28.5526 16.0904 -0.0 0.0 -0.0 11.0551 27.8154 -21.0262 15.4259 23.7536 -63.2799 2.41898 50.1467 -1.1319 39.0658 0.301568 4.88592 1.78134 6.46655 -9.3179 0.0 0.0 0.0 33.1602 34.0318 -5.79569 -0.874568 0.0350221 0.129643 -1.78044 11.8337 0.262062 -31.5585 0.0 0.0 -0.0 0.0 -0.0 -16.633 17.2501 2.82974 -15.0488 -0.321746 -2.28038 38.2525 4.4717 4.77029 8.87036 -0.0 -0.0 0.0 0.0 0.0 
1070.77 683.988 -483.71 -171.921 -76.5426 -173.08 0.319907 0.403786 3.15866 0.325434 0.202078 3.17792 0.338959 -0.452071 3.15211 0.325099 0.0511577 3.18392 -4.20975 -1.05999 -1.39288 -4.20459 -0.877091 -1.60202 -0.0 0.0 -0.0 -1.54969 21.64 0.311803 -13.709 -1.01818 68.7054 0.411391 -11.5188 0.0414934 -14.5995 -0.736669 1.71019 1.20352 29.4897 18.2089 -0.0 0.0 -0.0 11.0971 27.3387 -21.1777 11.5599 23.5671 -63.8261 2.26896 48.3338 -1.01824 37.022 0.2035 4.64369 1.95994 6.31011 -10.6077 0.0 0.0 0.0 31.0549 32.2052 -6.66496 -4.09354 0.146765 0.610957 3.61001 9.6773 -0.523582 -28.9332 0.0 0.0 -0.0 0.0 -0.0 -15.2458 17.7791 1.82343 -17.5955 -0.31651 -2.67105 37.7606 3.1025 4.70806 9.02116 -0.0 -0.0 0.0 0.0 0.0 
1089.17 702.186 -485.998 -172.679 -77.4798 -173.653 0.307134 0.129796 3.06786 0.312368 -0.0655901 3.06991 0.310681 -0.693798 2.99127 0.298258 -0.212908 3.06322 -4.57668 -2.53249 -1.63906 -4.56825 -3.40244 -2.09956 -0.0 0.0 -0.0 -0.28533 20.625 1.98806 -13.0231 -2.15198 66.4255 0.339782 -9.55456 0.0283968 -14.4201 -0.725012 1.69041 1.46892 29.4028 19.7058 -0.0 0.0 -0.0 11.0314 26.4826 -21.1283 7.78075 23.3345 -64.2447 2.18967 47.3204 -0.959476 35.0709 0.118009 4.40936 2.08136 6.13658 -11.5161 0.0 0.0 0.0 29.5703 31.0219 -7.13488 -7.04923 0.2254 1.05769 7.14912 8.36615 -1.0258 -26.736 0.0 0.0 -0.0 0.0 -0.0 -14.3055 18.1549 1.01235 -19.2208 -0.304096 -2.9201 37.4085 2.29677 4.66678 9.05388 -0.0 -0.0 0.0 0.0 0.0 
1120.24 699.962 -492.811 -173.688 -78.2563 -173.742 0.377545 -0.0583847 3.02591 0.382604 -0.250724 3.01608 0.370821 -0.861116 2.90149 0.359288 -0.392291 3.00096 -4.92462 -3.51235 -1.65938 -4.91388 -5.20536 -2.29518 -0.0 0.0 -0.0 0.838795 20.2925 3.58863 -12.3594 -3.00802 64.9046 0.312309 -8.79462 0.0240161 -14.4249 -0.725324 1.69094 1.62126 29.3913 20.584 -0.0 0.0 -0.0 10.933 25.8121 -20.9802 5.07296 23.0072 -64.4901 2.1057 46.2029 -0.898304 33.7135 0.0632723 4.24471 2.14963 6.01268 -12.0391 0.0 0.0 0.0 28.6402 30.1789 -7.59586 -9.11811 0.266677 1.37246 9.80247 7.40521 -1.39433 -25.0994 0.0 0.0 -0.0 0.0 -0.0 -15.1637 19.064 1.38223 -20.4986 -0.289377 -3.11561 37.1662 1.71875 4.63856 9.0768 -0.0 -0.0 0.0 0.0 0.0 
1143.09 706.239 -501.499 -175.557 -78.9393 -175.865 0.510027 -0.199449 2.96729 0.514841 -0.387778 2.94861 0.495892 -0.975503 2.80957 0.485254 -0.519744 2.92825 -5.16231 -4.24722 -1.74416 -5.14915 -6.50872 -2.51806 -0.0 0.0 -0.0 1.62247 19.9655 4.71203 -11.9629 -3.93129 63.732 0.332696 -9.35885 0.0272323 -14.5034 -0.730418 1.6996 1.72317 29.3908 21.1771 -0.0 0.0 -0.0 10.9093 25.6302 -20.9462 2.89003 22.9261 -64.9287 2.03967 45.2909 -0.851008 32.6681 0.0237879 4.11706 2.18839 5.79338 -12.3998 0.0 0.0 0.0 27.9065 29.6689 -7.86519 -10.5653 0.288781 1.59343 11.8418 6.59299 -1.67255 -23.8863 0.0 0.0 -0.0 0.0 -0.0 -15.6639 20.781 2.23203 -21.392 -0.276499 -3.25209 36.9893 1.12748 4.61662 9.04632 -0.0 -0.0 0.0 0.0 0.0 
1163.71 711.875 -506.468 -175.493 -80.2244 -174.942 0.61647 -0.174381 2.59172 0.620143 -0.33889 2.57539 0.605592 -0.847323 2.45558 0.597459 -0.449011 2.5585 -4.80762 -5.28109 -1.50112 -4.78853 -8.56806 -2.43059 -0.0 0.0 -0.0 2.20376 19.2896 5.53378 -10.636 -4.99946 62.9035 0.448385 -12.5233 0.0491985 -14.9475 -0.75946 1.74846 1.74324 29.6732 21.36 -0.0 0.0 -0.0 10.0677 24.1535 -19.2033 0.0192515 22.7265 -65.4259 1.95675 44.1025 -0.792679 32.065 0.00207424 4.04311 2.21415 5.62696 -12.6484 0.0 0.0 0.0 24.8126 29.7862 -6.9588 -11.1915 0.296613 1.68919 15.4714 5.82287 -2.1552 -21.9936 0.0 0.0 -0.0 0.0 -0.0 -13.9135 22.2262 2.33698 -23.2496 -0.242915 -3.53514 36.8862 0.448702 4.60127 8.92857 -0.0 -0.0 0.0 0.0 0.0 
1187.44 712.262 -514.748 -176.815 -80.1406 -176.185 0.579602 -0.0605349 2.35661 0.582667 -0.210327 2.34799 0.574746 -0.676909 2.25816 0.567766 -0.311882 2.33668 -4.94458 -5.90733 -1.29309 -4.92257 -9.88684 -2.3348 -0.0 0.0 -0.0 2.59926 18.8677 6.10743 -9.5467 -5.81399 62.3371 0.565533 -15.6503 0.0777219 -15.246 -0.779198 1.78118 1.76607 29.6358 21.4844 -0.0 0.0 -0.0 8.9015 23.2263 -16.6893 -3.22469 22.4796 -65.8504 1.87056 42.8146 -0.733395 31.5379 -0.0162652 3.97829 2.2299 5.43745 -12.8375 0.0 0.0 0.0 22.7747 29.8372 -6.31747 -11.5355 0.300471 1.74183 18.2419 5.15957 -2.51214 -20.6663 0.0 0.0 -0.0 0.0 -0.0 -12.5284 23.0313 1.11129 -25.5121 -0.189639 -3.87825 36.8135 -0.0238805 4.59085 8.84607 -0.0 -0.0 0.0 0.0 0.0 
1212.15 713.672 -523.204 179.983 -80.6314 -178.982 0.675757 0.0750829 1.84416 0.677648 -0.0423973 1.8452 0.676769 -0.408176 1.8 0.672267 -0.118828 1.84185 -4.18519 -6.22488 -1.40562 -4.15328 -10.3228 -2.44731 -0.0 0.0 -0.0 3.26352 18.2407 7.09505 -8.00708 -7.43072 62.1621 0.66433 -18.2159 0.106504 -15.9937 -0.829379 1.86268 1.75961 29.7397 21.4707 -0.0 0.0 -0.0 8.18183 22.5291 -15.1595 -5.51151 22.2993 -66.4472 1.61736 38.6985 -0.567985 31.1502 -0.0293749 3.9305 2.26073 5.52821 -13.0124 0.0 0.0 0.0 20.6437 30.7465 -6.30242 -11.7678 0.302897 1.77739 21.8392 4.56733 -2.95864 -18.532 0.0 0.0 -0.0 0.0 -0.0 -10.9562 23.6201 0.736713 -29.8571 -0.0495133 -4.53019 37.6687 -1.0641 4.66255 9.33176 -0.0 -0.0 0.0 0.0 0.0 
1233.84 712.99 -531.424 -179.399 -80.9021 -178.115 0.769569 0.16814 1.42906 0.770702 0.0768737 1.43686 0.772962 -0.207683 1.42385 0.770133 0.0197703 1.43878 -4.063 -5.96444 -1.09599 -4.03228 -10.0722 -2.07863 -0.0 0.0 -0.0 3.67305 17.7543 7.71502 -6.75231 -8.63047 62.0184 0.780961 -21.1496 0.1458 -16.4111 -0.857851 1.90789 1.76793 29.5256 21.4698 -0.0 0.0 -0.0 7.14201 21.7899 -12.9389 -7.79002 22.1015 -66.4692 1.3109 32.9973 -0.388288 31.0068 -0.0341415 3.91281 2.27752 5.52851 -13.1285 0.0 0.0 0.0 18.2469 31.7703 -4.87488 -11.8114 0.303337 1.78407 26.6345 3.9069 -3.52138 -16.4857 0.0 0.0 -0.0 0.0 -0.0 -9.45425 24.0994 -0.523233 -34.1118 0.135261 -5.15678 38.6668 -1.74294 4.74874 9.80669 -0.0 -0.0 0.0 0.0 0.0 
